# xmcd
#
# Track frame offsets: 
#        150
#        14513
#        30048
#        45328
#        61708
#        77440
#        94792
#        110684
#        126536
#        138138
#        149479
#        163432
#        181623
#
# Disc length: 2621 seconds
#
# Revision: 0
# Processed by: cddbd v1.5.2PL0 Copyright (c) Steve Scherf et al.
# Submitted via: ExactAudioCopyFreeDBPlugin 1.0
#
DISCID=a20a3b0d
DTITLE=Steinar Albrigtsen - The Sailor
DYEAR=2015
DGENRE=Country
TTITLE0=Music On The Radio
TTITLE1=Cloud 8
TTITLE2=I Broke It, I'll Fix It
TTITLE3=Her Turn To Deal
TTITLE4=This Memory Of You
TTITLE5=Nothing There
TTITLE6=Kingdom Of The Innocence
TTITLE7=The Moon Is In The House Of The Blues
TTITLE8=Joe's Place
TTITLE9=The Sailor
TTITLE10=A Woman's Tear
TTITLE11=Someday
TTITLE12=Farewell Mother Farewell
EXTD=
EXTT0=
EXTT1=
EXTT2=
EXTT3=
EXTT4=
EXTT5=
EXTT6=
EXTT7=
EXTT8=
EXTT9=
EXTT10=
EXTT11=
EXTT12=
PLAYORDER=
